<mxfile host="app.diagrams.net" modified="2023-07-24T17:35:46.357Z" agent="Mozilla/5.0 (Windows NT 10.0; Win64; x64) AppleWebKit/537.36 (KHTML, like Gecko) Chrome/114.0.0.0 Safari/537.36" etag="mnutgZrEOVAn2yDjrTAR" version="21.6.5" type="device">
  <diagram id="rm9I_QjmZgr1y0QWtpJx" name="Page-1">
    <mxGraphModel dx="1221" dy="620" grid="0" gridSize="10" guides="1" tooltips="1" connect="1" arrows="1" fold="1" page="1" pageScale="1" pageWidth="1169" pageHeight="827" background="#000000" math="0" shadow="1">
      <root>
        <mxCell id="0" />
        <mxCell id="1" parent="0" />
        <mxCell id="PfwHJsDXubMot4A9wJ8y-23" style="edgeStyle=orthogonalEdgeStyle;rounded=0;orthogonalLoop=1;jettySize=auto;html=1;entryX=0;entryY=0.25;entryDx=0;entryDy=0;endArrow=block;endFill=1;sketch=1;curveFitting=1;jiggle=2;shadow=1;exitX=1;exitY=0.176;exitDx=0;exitDy=0;exitPerimeter=0;labelBackgroundColor=none;strokeColor=#028090;fontColor=default;" edge="1" parent="1" source="PfwHJsDXubMot4A9wJ8y-1" target="PfwHJsDXubMot4A9wJ8y-5">
          <mxGeometry relative="1" as="geometry" />
        </mxCell>
        <mxCell id="PfwHJsDXubMot4A9wJ8y-1" value="&amp;lt;&amp;lt;Subject&amp;gt;&amp;gt;" style="swimlane;fontStyle=0;childLayout=stackLayout;horizontal=1;startSize=30;horizontalStack=0;resizeParent=1;resizeParentMax=0;resizeLast=0;collapsible=1;marginBottom=0;whiteSpace=wrap;html=1;sketch=1;curveFitting=1;jiggle=2;shadow=1;labelBackgroundColor=none;fillColor=#F45B69;strokeColor=#028090;fontColor=#E4FDE1;" vertex="1" parent="1">
          <mxGeometry x="147" y="209" width="140" height="120" as="geometry">
            <mxRectangle x="324" y="337" width="103" height="30" as="alternateBounds" />
          </mxGeometry>
        </mxCell>
        <mxCell id="PfwHJsDXubMot4A9wJ8y-31" value="addObserver()" style="text;strokeColor=none;fillColor=none;align=left;verticalAlign=middle;spacingLeft=4;spacingRight=4;overflow=hidden;points=[[0,0.5],[1,0.5]];portConstraint=eastwest;rotatable=0;whiteSpace=wrap;html=1;sketch=1;curveFitting=1;jiggle=2;shadow=1;labelBackgroundColor=none;fontColor=#E4FDE1;" vertex="1" parent="PfwHJsDXubMot4A9wJ8y-1">
          <mxGeometry y="30" width="140" height="30" as="geometry" />
        </mxCell>
        <mxCell id="PfwHJsDXubMot4A9wJ8y-3" value="removeObserver()" style="text;strokeColor=none;fillColor=none;align=left;verticalAlign=middle;spacingLeft=4;spacingRight=4;overflow=hidden;points=[[0,0.5],[1,0.5]];portConstraint=eastwest;rotatable=0;whiteSpace=wrap;html=1;sketch=1;curveFitting=1;jiggle=2;shadow=1;labelBackgroundColor=none;fontColor=#E4FDE1;" vertex="1" parent="PfwHJsDXubMot4A9wJ8y-1">
          <mxGeometry y="60" width="140" height="30" as="geometry" />
        </mxCell>
        <mxCell id="PfwHJsDXubMot4A9wJ8y-4" value="notifyObserver()" style="text;strokeColor=none;fillColor=none;align=left;verticalAlign=middle;spacingLeft=4;spacingRight=4;overflow=hidden;points=[[0,0.5],[1,0.5]];portConstraint=eastwest;rotatable=0;whiteSpace=wrap;html=1;sketch=1;curveFitting=1;jiggle=2;shadow=1;labelBackgroundColor=none;fontColor=#E4FDE1;" vertex="1" parent="PfwHJsDXubMot4A9wJ8y-1">
          <mxGeometry y="90" width="140" height="30" as="geometry" />
        </mxCell>
        <mxCell id="PfwHJsDXubMot4A9wJ8y-5" value="&amp;lt;&amp;lt;Observer&amp;gt;&amp;gt;" style="swimlane;fontStyle=0;childLayout=stackLayout;horizontal=1;startSize=30;horizontalStack=0;resizeParent=1;resizeParentMax=0;resizeLast=0;collapsible=1;marginBottom=0;whiteSpace=wrap;html=1;sketch=1;curveFitting=1;jiggle=2;shadow=1;labelBackgroundColor=none;fillColor=#F45B69;strokeColor=#028090;fontColor=#E4FDE1;" vertex="1" parent="1">
          <mxGeometry x="541" y="205" width="140" height="60" as="geometry">
            <mxRectangle x="718" y="333" width="112" height="30" as="alternateBounds" />
          </mxGeometry>
        </mxCell>
        <mxCell id="PfwHJsDXubMot4A9wJ8y-6" value="update()" style="text;strokeColor=none;fillColor=none;align=left;verticalAlign=middle;spacingLeft=4;spacingRight=4;overflow=hidden;points=[[0,0.5],[1,0.5]];portConstraint=eastwest;rotatable=0;whiteSpace=wrap;html=1;sketch=1;curveFitting=1;jiggle=2;shadow=1;labelBackgroundColor=none;fontColor=#E4FDE1;" vertex="1" parent="PfwHJsDXubMot4A9wJ8y-5">
          <mxGeometry y="30" width="140" height="30" as="geometry" />
        </mxCell>
        <mxCell id="PfwHJsDXubMot4A9wJ8y-18" style="edgeStyle=orthogonalEdgeStyle;rounded=0;orthogonalLoop=1;jettySize=auto;html=1;dashed=1;endArrow=block;endFill=0;sketch=1;curveFitting=1;jiggle=2;shadow=1;labelBackgroundColor=none;strokeColor=#028090;fontColor=default;" edge="1" parent="1" source="PfwHJsDXubMot4A9wJ8y-9" target="PfwHJsDXubMot4A9wJ8y-1">
          <mxGeometry relative="1" as="geometry" />
        </mxCell>
        <mxCell id="PfwHJsDXubMot4A9wJ8y-9" value="ConcreateSubject" style="swimlane;fontStyle=0;childLayout=stackLayout;horizontal=1;startSize=30;horizontalStack=0;resizeParent=1;resizeParentMax=0;resizeLast=0;collapsible=1;marginBottom=0;whiteSpace=wrap;html=1;sketch=1;curveFitting=1;jiggle=2;shadow=1;labelBackgroundColor=none;fillColor=#F45B69;strokeColor=#028090;fontColor=#E4FDE1;" vertex="1" parent="1">
          <mxGeometry x="147" y="449" width="181" height="390" as="geometry">
            <mxRectangle x="324" y="573" width="130" height="30" as="alternateBounds" />
          </mxGeometry>
        </mxCell>
        <mxCell id="PfwHJsDXubMot4A9wJ8y-20" value="-observers: List&amp;lt;Observer&amp;gt;" style="text;strokeColor=none;fillColor=none;align=left;verticalAlign=middle;spacingLeft=4;spacingRight=4;overflow=hidden;points=[[0,0.5],[1,0.5]];portConstraint=eastwest;rotatable=0;whiteSpace=wrap;html=1;sketch=1;curveFitting=1;jiggle=2;shadow=1;labelBackgroundColor=none;fontColor=#E4FDE1;" vertex="1" parent="PfwHJsDXubMot4A9wJ8y-9">
          <mxGeometry y="30" width="181" height="30" as="geometry" />
        </mxCell>
        <mxCell id="PfwHJsDXubMot4A9wJ8y-38" value="-temperature: float&amp;nbsp;" style="text;strokeColor=none;fillColor=none;align=left;verticalAlign=middle;spacingLeft=4;spacingRight=4;overflow=hidden;points=[[0,0.5],[1,0.5]];portConstraint=eastwest;rotatable=0;whiteSpace=wrap;html=1;sketch=1;curveFitting=1;jiggle=2;shadow=1;labelBackgroundColor=none;fontColor=#E4FDE1;" vertex="1" parent="PfwHJsDXubMot4A9wJ8y-9">
          <mxGeometry y="60" width="181" height="30" as="geometry" />
        </mxCell>
        <mxCell id="PfwHJsDXubMot4A9wJ8y-42" value="-pressure : float&amp;nbsp;" style="text;strokeColor=none;fillColor=none;align=left;verticalAlign=middle;spacingLeft=4;spacingRight=4;overflow=hidden;points=[[0,0.5],[1,0.5]];portConstraint=eastwest;rotatable=0;whiteSpace=wrap;html=1;sketch=1;curveFitting=1;jiggle=2;shadow=1;labelBackgroundColor=none;fontColor=#E4FDE1;" vertex="1" parent="PfwHJsDXubMot4A9wJ8y-9">
          <mxGeometry y="90" width="181" height="30" as="geometry" />
        </mxCell>
        <mxCell id="PfwHJsDXubMot4A9wJ8y-43" value="-humidity: float&amp;nbsp;" style="text;strokeColor=none;fillColor=none;align=left;verticalAlign=middle;spacingLeft=4;spacingRight=4;overflow=hidden;points=[[0,0.5],[1,0.5]];portConstraint=eastwest;rotatable=0;whiteSpace=wrap;html=1;sketch=1;curveFitting=1;jiggle=2;shadow=1;labelBackgroundColor=none;fontColor=#E4FDE1;" vertex="1" parent="PfwHJsDXubMot4A9wJ8y-9">
          <mxGeometry y="120" width="181" height="30" as="geometry" />
        </mxCell>
        <mxCell id="PfwHJsDXubMot4A9wJ8y-32" value="&amp;nbsp;" style="text;strokeColor=none;fillColor=none;align=left;verticalAlign=middle;spacingLeft=4;spacingRight=4;overflow=hidden;points=[[0,0.5],[1,0.5]];portConstraint=eastwest;rotatable=0;whiteSpace=wrap;html=1;sketch=1;curveFitting=1;jiggle=2;shadow=1;labelBackgroundColor=none;fontColor=#E4FDE1;" vertex="1" parent="PfwHJsDXubMot4A9wJ8y-9">
          <mxGeometry y="150" width="181" height="30" as="geometry" />
        </mxCell>
        <mxCell id="PfwHJsDXubMot4A9wJ8y-10" value="addObserver(){---}" style="text;strokeColor=none;fillColor=none;align=left;verticalAlign=middle;spacingLeft=4;spacingRight=4;overflow=hidden;points=[[0,0.5],[1,0.5]];portConstraint=eastwest;rotatable=0;whiteSpace=wrap;html=1;sketch=1;curveFitting=1;jiggle=2;shadow=1;labelBackgroundColor=none;fontColor=#E4FDE1;" vertex="1" parent="PfwHJsDXubMot4A9wJ8y-9">
          <mxGeometry y="180" width="181" height="30" as="geometry" />
        </mxCell>
        <mxCell id="PfwHJsDXubMot4A9wJ8y-11" value="removeObserver(){---}" style="text;strokeColor=none;fillColor=none;align=left;verticalAlign=middle;spacingLeft=4;spacingRight=4;overflow=hidden;points=[[0,0.5],[1,0.5]];portConstraint=eastwest;rotatable=0;whiteSpace=wrap;html=1;sketch=1;curveFitting=1;jiggle=2;shadow=1;labelBackgroundColor=none;fontColor=#E4FDE1;" vertex="1" parent="PfwHJsDXubMot4A9wJ8y-9">
          <mxGeometry y="210" width="181" height="30" as="geometry" />
        </mxCell>
        <mxCell id="PfwHJsDXubMot4A9wJ8y-12" value="notifyObserver(){---}" style="text;strokeColor=none;fillColor=none;align=left;verticalAlign=middle;spacingLeft=4;spacingRight=4;overflow=hidden;points=[[0,0.5],[1,0.5]];portConstraint=eastwest;rotatable=0;whiteSpace=wrap;html=1;sketch=1;curveFitting=1;jiggle=2;shadow=1;labelBackgroundColor=none;fontColor=#E4FDE1;" vertex="1" parent="PfwHJsDXubMot4A9wJ8y-9">
          <mxGeometry y="240" width="181" height="30" as="geometry" />
        </mxCell>
        <mxCell id="PfwHJsDXubMot4A9wJ8y-27" value="&amp;nbsp;" style="text;strokeColor=none;fillColor=none;align=left;verticalAlign=middle;spacingLeft=4;spacingRight=4;overflow=hidden;points=[[0,0.5],[1,0.5]];portConstraint=eastwest;rotatable=0;whiteSpace=wrap;html=1;sketch=1;curveFitting=1;jiggle=2;shadow=1;labelBackgroundColor=none;fontColor=#E4FDE1;" vertex="1" parent="PfwHJsDXubMot4A9wJ8y-9">
          <mxGeometry y="270" width="181" height="30" as="geometry" />
        </mxCell>
        <mxCell id="PfwHJsDXubMot4A9wJ8y-25" value="+getTemprature()" style="text;strokeColor=none;fillColor=none;align=left;verticalAlign=middle;spacingLeft=4;spacingRight=4;overflow=hidden;points=[[0,0.5],[1,0.5]];portConstraint=eastwest;rotatable=0;whiteSpace=wrap;html=1;sketch=1;curveFitting=1;jiggle=2;shadow=1;labelBackgroundColor=none;fontColor=#E4FDE1;" vertex="1" parent="PfwHJsDXubMot4A9wJ8y-9">
          <mxGeometry y="300" width="181" height="30" as="geometry" />
        </mxCell>
        <mxCell id="PfwHJsDXubMot4A9wJ8y-2" value="+getPresure()" style="text;strokeColor=none;fillColor=none;align=left;verticalAlign=middle;spacingLeft=4;spacingRight=4;overflow=hidden;points=[[0,0.5],[1,0.5]];portConstraint=eastwest;rotatable=0;whiteSpace=wrap;html=1;sketch=1;curveFitting=1;jiggle=2;shadow=1;labelBackgroundColor=none;fontColor=#E4FDE1;" vertex="1" parent="PfwHJsDXubMot4A9wJ8y-9">
          <mxGeometry y="330" width="181" height="30" as="geometry" />
        </mxCell>
        <mxCell id="PfwHJsDXubMot4A9wJ8y-44" value="+getHumidity()" style="text;strokeColor=none;fillColor=none;align=left;verticalAlign=middle;spacingLeft=4;spacingRight=4;overflow=hidden;points=[[0,0.5],[1,0.5]];portConstraint=eastwest;rotatable=0;whiteSpace=wrap;html=1;sketch=1;curveFitting=1;jiggle=2;shadow=1;labelBackgroundColor=none;fontColor=#E4FDE1;" vertex="1" parent="PfwHJsDXubMot4A9wJ8y-9">
          <mxGeometry y="360" width="181" height="30" as="geometry" />
        </mxCell>
        <mxCell id="PfwHJsDXubMot4A9wJ8y-19" style="edgeStyle=orthogonalEdgeStyle;rounded=0;orthogonalLoop=1;jettySize=auto;html=1;endArrow=block;endFill=0;dashed=1;sketch=1;curveFitting=1;jiggle=2;shadow=1;labelBackgroundColor=none;strokeColor=#028090;fontColor=default;" edge="1" parent="1" source="PfwHJsDXubMot4A9wJ8y-13" target="PfwHJsDXubMot4A9wJ8y-5">
          <mxGeometry relative="1" as="geometry" />
        </mxCell>
        <mxCell id="PfwHJsDXubMot4A9wJ8y-24" style="edgeStyle=orthogonalEdgeStyle;rounded=0;orthogonalLoop=1;jettySize=auto;html=1;endArrow=block;endFill=1;entryX=1;entryY=0.09;entryDx=0;entryDy=0;entryPerimeter=0;sketch=1;curveFitting=1;jiggle=2;shadow=1;exitX=0;exitY=0.5;exitDx=0;exitDy=0;labelBackgroundColor=none;strokeColor=#028090;fontColor=default;" edge="1" parent="1" source="PfwHJsDXubMot4A9wJ8y-14" target="PfwHJsDXubMot4A9wJ8y-9">
          <mxGeometry relative="1" as="geometry">
            <mxPoint x="541" y="524" as="sourcePoint" />
          </mxGeometry>
        </mxCell>
        <mxCell id="PfwHJsDXubMot4A9wJ8y-13" value="ConcreteObserver" style="swimlane;fontStyle=0;childLayout=stackLayout;horizontal=1;startSize=30;horizontalStack=0;resizeParent=1;resizeParentMax=0;resizeLast=0;collapsible=1;marginBottom=0;whiteSpace=wrap;html=1;sketch=1;curveFitting=1;jiggle=2;shadow=1;labelBackgroundColor=none;fillColor=#F45B69;strokeColor=#028090;fontColor=#E4FDE1;" vertex="1" parent="1">
          <mxGeometry x="541" y="449" width="177" height="270" as="geometry">
            <mxRectangle x="718" y="577" width="133" height="30" as="alternateBounds" />
          </mxGeometry>
        </mxCell>
        <mxCell id="PfwHJsDXubMot4A9wJ8y-14" value="subject:&amp;nbsp;ConcreateSubject" style="text;strokeColor=none;fillColor=none;align=left;verticalAlign=middle;spacingLeft=4;spacingRight=4;overflow=hidden;points=[[0,0.5],[1,0.5]];portConstraint=eastwest;rotatable=0;whiteSpace=wrap;html=1;sketch=1;curveFitting=1;jiggle=2;shadow=1;labelBackgroundColor=none;fontColor=#E4FDE1;" vertex="1" parent="PfwHJsDXubMot4A9wJ8y-13">
          <mxGeometry y="30" width="177" height="30" as="geometry" />
        </mxCell>
        <mxCell id="PfwHJsDXubMot4A9wJ8y-45" value="-temperature: float&amp;nbsp;" style="text;strokeColor=none;fillColor=none;align=left;verticalAlign=middle;spacingLeft=4;spacingRight=4;overflow=hidden;points=[[0,0.5],[1,0.5]];portConstraint=eastwest;rotatable=0;whiteSpace=wrap;html=1;sketch=1;curveFitting=1;jiggle=2;shadow=1;labelBackgroundColor=none;fontColor=#E4FDE1;" vertex="1" parent="PfwHJsDXubMot4A9wJ8y-13">
          <mxGeometry y="60" width="177" height="30" as="geometry" />
        </mxCell>
        <mxCell id="PfwHJsDXubMot4A9wJ8y-47" value="-humidity: float&amp;nbsp;" style="text;strokeColor=none;fillColor=none;align=left;verticalAlign=middle;spacingLeft=4;spacingRight=4;overflow=hidden;points=[[0,0.5],[1,0.5]];portConstraint=eastwest;rotatable=0;whiteSpace=wrap;html=1;sketch=1;curveFitting=1;jiggle=2;shadow=1;labelBackgroundColor=none;fontColor=#E4FDE1;" vertex="1" parent="PfwHJsDXubMot4A9wJ8y-13">
          <mxGeometry y="90" width="177" height="30" as="geometry" />
        </mxCell>
        <mxCell id="PfwHJsDXubMot4A9wJ8y-46" value="-pressure : float&amp;nbsp;" style="text;strokeColor=none;fillColor=none;align=left;verticalAlign=middle;spacingLeft=4;spacingRight=4;overflow=hidden;points=[[0,0.5],[1,0.5]];portConstraint=eastwest;rotatable=0;whiteSpace=wrap;html=1;sketch=1;curveFitting=1;jiggle=2;shadow=1;labelBackgroundColor=none;fontColor=#E4FDE1;" vertex="1" parent="PfwHJsDXubMot4A9wJ8y-13">
          <mxGeometry y="120" width="177" height="30" as="geometry" />
        </mxCell>
        <mxCell id="PfwHJsDXubMot4A9wJ8y-28" value="&amp;nbsp;" style="text;strokeColor=none;fillColor=none;align=left;verticalAlign=middle;spacingLeft=4;spacingRight=4;overflow=hidden;points=[[0,0.5],[1,0.5]];portConstraint=eastwest;rotatable=0;whiteSpace=wrap;html=1;sketch=1;curveFitting=1;jiggle=2;shadow=1;labelBackgroundColor=none;fontColor=#E4FDE1;" vertex="1" parent="PfwHJsDXubMot4A9wJ8y-13">
          <mxGeometry y="150" width="177" height="30" as="geometry" />
        </mxCell>
        <mxCell id="PfwHJsDXubMot4A9wJ8y-15" value="update(){---}" style="text;strokeColor=none;fillColor=none;align=left;verticalAlign=middle;spacingLeft=4;spacingRight=4;overflow=hidden;points=[[0,0.5],[1,0.5]];portConstraint=eastwest;rotatable=0;whiteSpace=wrap;html=1;sketch=1;curveFitting=1;jiggle=2;shadow=1;labelBackgroundColor=none;fontColor=#E4FDE1;" vertex="1" parent="PfwHJsDXubMot4A9wJ8y-13">
          <mxGeometry y="180" width="177" height="30" as="geometry" />
        </mxCell>
        <mxCell id="PfwHJsDXubMot4A9wJ8y-37" value="display(){---}" style="text;strokeColor=none;fillColor=none;align=left;verticalAlign=middle;spacingLeft=4;spacingRight=4;overflow=hidden;points=[[0,0.5],[1,0.5]];portConstraint=eastwest;rotatable=0;whiteSpace=wrap;html=1;sketch=1;curveFitting=1;jiggle=2;shadow=1;labelBackgroundColor=none;fontColor=#E4FDE1;" vertex="1" parent="PfwHJsDXubMot4A9wJ8y-13">
          <mxGeometry y="210" width="177" height="30" as="geometry" />
        </mxCell>
        <mxCell id="PfwHJsDXubMot4A9wJ8y-30" value="// other methods" style="text;strokeColor=none;fillColor=none;align=left;verticalAlign=middle;spacingLeft=4;spacingRight=4;overflow=hidden;points=[[0,0.5],[1,0.5]];portConstraint=eastwest;rotatable=0;whiteSpace=wrap;html=1;sketch=1;curveFitting=1;jiggle=2;shadow=1;labelBackgroundColor=none;fontColor=#E4FDE1;" vertex="1" parent="PfwHJsDXubMot4A9wJ8y-13">
          <mxGeometry y="240" width="177" height="30" as="geometry" />
        </mxCell>
        <mxCell id="PfwHJsDXubMot4A9wJ8y-33" value="&amp;lt;&amp;lt;Display&amp;gt;&amp;gt;" style="swimlane;fontStyle=0;childLayout=stackLayout;horizontal=1;startSize=30;horizontalStack=0;resizeParent=1;resizeParentMax=0;resizeLast=0;collapsible=1;marginBottom=0;whiteSpace=wrap;html=1;sketch=1;curveFitting=1;jiggle=2;shadow=1;labelBackgroundColor=none;fillColor=#F45B69;strokeColor=#028090;fontColor=#E4FDE1;" vertex="1" parent="1">
          <mxGeometry x="807" y="205" width="140" height="60" as="geometry">
            <mxRectangle x="718" y="333" width="112" height="30" as="alternateBounds" />
          </mxGeometry>
        </mxCell>
        <mxCell id="PfwHJsDXubMot4A9wJ8y-35" value="display()" style="text;strokeColor=none;fillColor=none;align=left;verticalAlign=middle;spacingLeft=4;spacingRight=4;overflow=hidden;points=[[0,0.5],[1,0.5]];portConstraint=eastwest;rotatable=0;whiteSpace=wrap;html=1;sketch=1;curveFitting=1;jiggle=2;shadow=1;labelBackgroundColor=none;fontColor=#E4FDE1;" vertex="1" parent="PfwHJsDXubMot4A9wJ8y-33">
          <mxGeometry y="30" width="140" height="30" as="geometry" />
        </mxCell>
        <mxCell id="PfwHJsDXubMot4A9wJ8y-36" style="edgeStyle=orthogonalEdgeStyle;rounded=0;orthogonalLoop=1;jettySize=auto;html=1;endArrow=block;endFill=0;dashed=1;sketch=1;curveFitting=1;jiggle=2;shadow=1;labelBackgroundColor=none;strokeColor=#028090;fontColor=default;" edge="1" parent="1" source="PfwHJsDXubMot4A9wJ8y-13" target="PfwHJsDXubMot4A9wJ8y-33">
          <mxGeometry relative="1" as="geometry">
            <mxPoint x="621" y="459" as="sourcePoint" />
            <mxPoint x="621" y="305" as="targetPoint" />
            <Array as="points">
              <mxPoint x="621" y="383" />
              <mxPoint x="877" y="383" />
            </Array>
          </mxGeometry>
        </mxCell>
      </root>
    </mxGraphModel>
  </diagram>
</mxfile>
